<?xml version="1.0" encoding="UTF-8" standalone="no"?>
<!-- Created with Inkscape (http://www.inkscape.org/) -->

<svg
   version="1.1"
   id="svg101"
   width="255.12"
   height="247.67999"
   viewBox="0 0 255.12 247.67999"
   sodipodi:docname="colegio_dark.svg"
   inkscape:version="1.1 (c4e8f9ed74, 2021-05-24)"
   inkscape:export-filename="/home/eriklf/design/colegio_dark.png"
   inkscape:export-xdpi="114.87933"
   inkscape:export-ydpi="114.87933"
   xmlns:inkscape="http://www.inkscape.org/namespaces/inkscape"
   xmlns:sodipodi="http://sodipodi.sourceforge.net/DTD/sodipodi-0.dtd"
   xmlns="http://www.w3.org/2000/svg"
   xmlns:svg="http://www.w3.org/2000/svg">
  <defs
     id="defs105" />
  <sodipodi:namedview
     id="namedview103"
     pagecolor="#505050"
     bordercolor="#eeeeee"
     borderopacity="1"
     inkscape:pageshadow="0"
     inkscape:pageopacity="0"
     inkscape:pagecheckerboard="0"
     showgrid="false"
     width="261.12px"
     inkscape:zoom="2.56"
     inkscape:cx="63.476563"
     inkscape:cy="107.42188"
     inkscape:window-width="850"
     inkscape:window-height="1017"
     inkscape:window-x="1066"
     inkscape:window-y="43"
     inkscape:window-maximized="1"
     inkscape:current-layer="g107" />
  <g
     inkscape:groupmode="layer"
     inkscape:label="Image"
     id="g107"
     style="display:inline">
    <path
       style="fill:#0f1011;stroke:#0f1011;stroke-width:1px;stroke-linecap:butt;stroke-linejoin:miter;stroke-opacity:1;fill-opacity:1"
       d="m 253.13041,111.98884 c 2.68146,15.14912 -8.35998,134.68587 -121.75919,133.14161 C 17.972013,243.58619 4.5091866,157.19057 3.8091324,125.39314 1.712916,30.18011 95.254963,-3.0412214 126.46546,1.1619603 129.7867,1.6092385 233.57155,1.4896304 253.13041,111.98884 Z"
       sodipodi:nodetypes="szsss" />
    <path
       style="fill:#2e2e33;fill-opacity:1;stroke:#2e2e33;stroke-width:1px;stroke-linecap:butt;stroke-linejoin:miter;stroke-opacity:1"
       d="m 133.37051,215.74391 c 63.54332,-1.16739 85.45256,-62.24638 84.09451,-93.51626 -3.14553,-72.427393 -73.22092,-91.95688 -89.07915,-89.763274 -15.85823,2.193606 -83.437124,4.659354 -92.969123,92.343914 -2.194273,20.18505 17.028536,92.42234 97.953763,90.93562 z"
       id="path933"
       sodipodi:nodetypes="sszss" />
    <path
       style="fill:#dadadb;stroke:#000000;stroke-width:1px;stroke-linecap:butt;stroke-linejoin:miter;stroke-opacity:1;fill-opacity:1"
       d="m 126.41288,46.334043 c -3.53732,-11.285804 -33.503275,2.785793 -33.503275,2.785793 l -48.97958,49.776415 c 0,0 68.133815,-28.918415 82.218965,-5.264779"
       id="path2818"
       sodipodi:nodetypes="cccc" />
    <path
       style="fill:#dadadb;stroke:#000000;stroke-width:1px;stroke-linecap:butt;stroke-linejoin:miter;stroke-opacity:1;fill-opacity:1"
       d="m 129.46741,93.024374 c 12.26132,-22.639118 83.25272,7.068996 83.25272,7.068996 L 163.39728,49.785171 c 0,0 -29.58138,-15.848765 -33.8597,-3.537492"
       id="path2824"
       sodipodi:nodetypes="cccc" />
    <path
       style="fill:#1d1e20;stroke:#000000;stroke-width:1px;stroke-linecap:butt;stroke-linejoin:miter;stroke-opacity:1;fill-opacity:1"
       d="m 125.62364,103.83081 c -6.20589,2.38205 -83.841223,5.76959 -83.841223,5.76959 0,0 72.426613,-33.953882 83.841223,-5.76959"
       id="path2828"
       sodipodi:nodetypes="ccc" />
    <path
       style="fill:#1d1e20;stroke:#000000;stroke-width:1px;stroke-linecap:butt;stroke-linejoin:miter;stroke-opacity:1;fill-opacity:1"
       d="m 129.66836,103.65192 c 0,0 46.79162,4.43704 81.49298,6.84814 0,0 -70.66946,-34.693801 -81.54466,-7.13638"
       id="path3031"
       sodipodi:nodetypes="ccc" />
    <path
       style="fill:none;stroke:#000000;stroke-width:1px;stroke-linecap:butt;stroke-linejoin:miter;stroke-opacity:1"
       d="m 43.930025,98.896251 c 0,0 1.810873,3.684569 -2.147608,10.704149"
       id="path3041" />
    <path
       style="fill:none;stroke:#000000;stroke-width:1px;stroke-linecap:butt;stroke-linejoin:miter;stroke-opacity:1"
       d="m 212.72013,100.09337 c 0,0 -3.64218,1.44847 -1.55879,10.40669"
       id="path3043" />
    <path
       style="fill:#dadadb;stroke:#000000;stroke-width:1px;stroke-linecap:butt;stroke-linejoin:miter;stroke-opacity:1;fill-opacity:1"
       d="M 113.8206,201.30232 C 98.054046,189.59619 92.025354,200.58186 92.025354,200.58186 88.534191,129.31845 125.63974,107.22785 125.63974,107.22785 l -0.11879,-3.21376 0.62804,-10.382618 0.26389,-47.297429 3.1247,-0.08636 -0.0702,46.776691 0.14928,10.339306 0.0484,4.81086 c 0,0 -46.629559,29.15877 -3.71351,100.69674 z"
       id="path3049"
       sodipodi:nodetypes="cccccccccccc" />
    <path
       style="fill:#dadadb;stroke:#000000;stroke-width:1px;stroke-linecap:butt;stroke-linejoin:miter;stroke-opacity:1;fill-opacity:1"
       d="m 178.31761,138.60164 c -4.33177,11.1953 -19.79046,11.50418 -19.79046,11.50418 l 7.04789,-28.73161 c 0,0 -6.45246,2.45345 -18.77029,3.42523 l -0.79122,4.92597 4.79494,0.64091 -10.30391,44.27539 c 0,0 -3.36591,20.68018 -15.65993,18.77558 l -1.40862,5.63763 c 2.09904,-2.00214 40.55083,-0.12316 40.55083,-0.12316 24.78175,-8.61619 26.24824,-23.51753 26.24824,-23.51753 6.53886,-21.48528 -12.41663,-25.78223 -12.41663,-25.78223 19.16124,-11.94342 13.02136,-24.02833 13.02136,-24.02833 -5.65412,-20.93248 -36.03012,-14.63571 -36.03012,-14.63571 -28.82651,4.82816 -39.07697,32.7239 -39.07697,32.7239 -8.81453,24.68008 5.05765,35.59496 5.05765,35.59496 5.56825,3.75452 8.25435,0.068 8.25435,0.068 2.89112,-3.81174 1.51315,-7.25435 -2.63201,-7.71564 -4.03705,-0.44925 -6.83935,-9.78361 -6.83935,-9.78361 -2.7079,-24.13313 19.35704,-38.01647 19.35704,-38.01647 14.34873,-10.35933 31.3596,-7.35981 31.3596,-7.35981 16.86146,4.17481 8.02761,22.12235 8.02761,22.12235"
       id="path3239"
       sodipodi:nodetypes="cccccccccccccccccscccc" />
    <path
       style="fill:#2e2e33;stroke:#000000;stroke-width:1px;stroke-linecap:butt;stroke-linejoin:miter;stroke-opacity:1;fill-opacity:1"
       d="m 157.30894,155.81272 c 0,0 23.01082,-3.8873 19.82777,17.69882 0,0 -1.32513,13.81104 -14.59517,18.75741 -5.90261,1.79177 -16.7262,0.12282 -16.7262,0.12282 9.40544,-15.38283 11.4936,-36.57905 11.4936,-36.57905 z"
       id="path3275"
       sodipodi:nodetypes="ccccc" />
    <path
       style="fill:#dadadb;fill-opacity:1;stroke:none;stroke-width:3.91484"
       d="m 207.85072,108.33043 c -8.99857,-4.11751 -19.64726,-8.1858 -28.51905,-10.895588 -19.81433,-6.052064 -34.2218,-6.885079 -42.74405,-2.471386 -0.79757,0.413061 -1.85726,1.055997 -2.35487,1.428746 -1.15143,0.862507 -2.79562,2.583534 -3.55051,3.716438 l -0.58564,0.8789 v -3.98815 -3.988152 l 0.46883,-0.696179 c 2.58341,-3.836131 7.37022,-6.141676 14.51576,-6.991434 2.21514,-0.263429 8.91399,-0.220799 11.94623,0.07602 12.50289,1.223886 28.42268,5.227755 45.88219,11.539481 3.10768,1.123449 8.40677,3.155254 8.51724,3.265724 0.0407,0.0407 -9.6e-4,0.17971 -0.0926,0.30899 -1.13399,1.6008 -1.57914,3.93642 -1.28192,6.72609 0.089,0.83554 0.19614,1.659 0.23805,1.82991 0.0419,0.17091 0.0228,0.30907 -0.0424,0.30702 -0.0652,-0.002 -1.144,-0.47294 -2.39732,-1.04643 z"
       id="path1963" />
    <path
       style="fill:#dadadb;fill-opacity:1;stroke:none;stroke-width:3.91484"
       d="m 43.140426,108.2277 c 1.096642,-2.48254 1.599125,-4.3244 1.701209,-6.23583 0.04057,-0.75959 0.01407,-1.70251 -0.05888,-2.09539 l -0.132644,-0.714319 3.05207,-1.180859 C 66.876418,90.582695 84.626556,86.05239 98.40109,85.061596 c 2.88403,-0.207446 9.11187,-0.09047 11.32476,0.212704 3.33498,0.456912 6.57621,1.345989 8.83992,2.424816 2.55075,1.215618 5.15982,3.341775 6.47678,5.277985 l 0.5379,0.790816 -0.16165,2.730907 c -0.0889,1.501999 -0.19933,3.21106 -0.24539,3.797916 l -0.0837,1.067 -0.69572,-0.99795 c -4.82887,-6.926677 -15.0492,-9.546629 -29.997957,-7.68989 -13.338629,1.65675 -31.408772,7.075458 -48.933926,14.67385 -1.315565,0.57039 -2.360304,0.96547 -2.321641,0.87795 z"
       id="path2078" />
  </g>
</svg>
